<svg id="visual" viewBox="0 0 960 540" width="960" height="540" xmlns="http://www.w3.org/2000/svg" xmlns:xlink="http://www.w3.org/1999/xlink" version="1.1"><path d="M0 465L7.7 466.5C15.3 468 30.7 471 45.8 471.7C61 472.3 76 470.7 91.2 468.8C106.3 467 121.7 465 137 465.3C152.3 465.7 167.7 468.3 183 470.3C198.3 472.3 213.7 473.7 228.8 471.3C244 469 259 463 274.2 459.5C289.3 456 304.7 455 320 457.2C335.3 459.3 350.7 464.7 365.8 467C381 469.3 396 468.7 411.2 469.5C426.3 470.3 441.7 472.7 457 473.5C472.3 474.3 487.7 473.7 503 473.8C518.3 474 533.7 475 548.8 473.5C564 472 579 468 594.2 468.5C609.3 469 624.7 474 640 474.2C655.3 474.3 670.7 469.7 685.8 467.5C701 465.3 716 465.7 731.2 464.2C746.3 462.7 761.7 459.3 777 458.5C792.3 457.7 807.7 459.3 823 462.7C838.3 466 853.7 471 868.8 471C884 471 899 466 914.2 464C929.3 462 944.7 463 952.3 463.5L960 464L960 541L952.3 541C944.7 541 929.3 541 914.2 541C899 541 884 541 868.8 541C853.7 541 838.3 541 823 541C807.7 541 792.3 541 777 541C761.7 541 746.3 541 731.2 541C716 541 701 541 685.8 541C670.7 541 655.3 541 640 541C624.7 541 609.3 541 594.2 541C579 541 564 541 548.8 541C533.7 541 518.3 541 503 541C487.7 541 472.3 541 457 541C441.7 541 426.3 541 411.2 541C396 541 381 541 365.8 541C350.7 541 335.3 541 320 541C304.7 541 289.3 541 274.2 541C259 541 244 541 228.8 541C213.7 541 198.3 541 183 541C167.7 541 152.3 541 137 541C121.7 541 106.3 541 91.2 541C76 541 61 541 45.8 541C30.7 541 15.3 541 7.7 541L0 541Z" fill="#d0cbf7"></path><path d="M0 470L7.7 473C15.3 476 30.7 482 45.8 481.7C61 481.3 76 474.7 91.2 473.5C106.3 472.3 121.7 476.7 137 479.5C152.3 482.3 167.7 483.7 183 482.3C198.3 481 213.7 477 228.8 477C244 477 259 481 274.2 482.8C289.3 484.7 304.7 484.3 320 484.5C335.3 484.7 350.7 485.3 365.8 484.8C381 484.3 396 482.7 411.2 482.2C426.3 481.7 441.7 482.3 457 482C472.3 481.7 487.7 480.3 503 477.8C518.3 475.3 533.7 471.7 548.8 473.3C564 475 579 482 594.2 485.5C609.3 489 624.7 489 640 486C655.3 483 670.7 477 685.8 476.3C701 475.7 716 480.3 731.2 481.3C746.3 482.3 761.7 479.7 777 479.8C792.3 480 807.7 483 823 484.2C838.3 485.3 853.7 484.7 868.8 484.2C884 483.7 899 483.3 914.2 482.8C929.3 482.3 944.7 481.7 952.3 481.3L960 481L960 541L952.3 541C944.7 541 929.3 541 914.2 541C899 541 884 541 868.8 541C853.7 541 838.3 541 823 541C807.7 541 792.3 541 777 541C761.7 541 746.3 541 731.2 541C716 541 701 541 685.8 541C670.7 541 655.3 541 640 541C624.7 541 609.3 541 594.2 541C579 541 564 541 548.8 541C533.7 541 518.3 541 503 541C487.7 541 472.3 541 457 541C441.7 541 426.3 541 411.2 541C396 541 381 541 365.8 541C350.7 541 335.3 541 320 541C304.7 541 289.3 541 274.2 541C259 541 244 541 228.8 541C213.7 541 198.3 541 183 541C167.7 541 152.3 541 137 541C121.7 541 106.3 541 91.2 541C76 541 61 541 45.8 541C30.7 541 15.3 541 7.7 541L0 541Z" fill="#bfbcf6"></path><path d="M0 495L7.7 494.7C15.3 494.3 30.7 493.7 45.8 492.7C61 491.7 76 490.3 91.2 488.3C106.3 486.3 121.7 483.7 137 483.7C152.3 483.7 167.7 486.3 183 486C198.3 485.7 213.7 482.3 228.8 482.8C244 483.3 259 487.7 274.2 488.5C289.3 489.3 304.7 486.7 320 484.7C335.3 482.7 350.7 481.3 365.8 480.3C381 479.3 396 478.7 411.2 481C426.3 483.3 441.7 488.7 457 491.7C472.3 494.7 487.7 495.3 503 495.5C518.3 495.7 533.7 495.3 548.8 494.2C564 493 579 491 594.2 489C609.3 487 624.7 485 640 485.2C655.3 485.3 670.7 487.7 685.8 489.7C701 491.7 716 493.3 731.2 494C746.3 494.7 761.7 494.3 777 494.2C792.3 494 807.7 494 823 494.7C838.3 495.3 853.7 496.7 868.8 494.7C884 492.7 899 487.3 914.2 486.2C929.3 485 944.7 488 952.3 489.5L960 491L960 541L952.3 541C944.7 541 929.3 541 914.2 541C899 541 884 541 868.8 541C853.7 541 838.3 541 823 541C807.7 541 792.3 541 777 541C761.7 541 746.3 541 731.2 541C716 541 701 541 685.8 541C670.7 541 655.3 541 640 541C624.7 541 609.3 541 594.2 541C579 541 564 541 548.8 541C533.7 541 518.3 541 503 541C487.7 541 472.3 541 457 541C441.7 541 426.3 541 411.2 541C396 541 381 541 365.8 541C350.7 541 335.3 541 320 541C304.7 541 289.3 541 274.2 541C259 541 244 541 228.8 541C213.7 541 198.3 541 183 541C167.7 541 152.3 541 137 541C121.7 541 106.3 541 91.2 541C76 541 61 541 45.8 541C30.7 541 15.3 541 7.7 541L0 541Z" fill="#abadf5"></path><path d="M0 495L7.7 495.8C15.3 496.7 30.7 498.3 45.8 499C61 499.7 76 499.3 91.2 499.2C106.3 499 121.7 499 137 500C152.3 501 167.7 503 183 502.8C198.3 502.7 213.7 500.3 228.8 499.8C244 499.3 259 500.7 274.2 502.5C289.3 504.3 304.7 506.7 320 504.8C335.3 503 350.7 497 365.8 497C381 497 396 503 411.2 505C426.3 507 441.7 505 457 505C472.3 505 487.7 507 503 507.8C518.3 508.7 533.7 508.3 548.8 507.8C564 507.3 579 506.7 594.2 505.5C609.3 504.3 624.7 502.7 640 501.7C655.3 500.7 670.7 500.3 685.8 501.3C701 502.3 716 504.7 731.2 503.3C746.3 502 761.7 497 777 495.8C792.3 494.7 807.7 497.3 823 498.7C838.3 500 853.7 500 868.8 500.3C884 500.7 899 501.3 914.2 501C929.3 500.7 944.7 499.3 952.3 498.7L960 498L960 541L952.3 541C944.7 541 929.3 541 914.2 541C899 541 884 541 868.8 541C853.7 541 838.3 541 823 541C807.7 541 792.3 541 777 541C761.7 541 746.3 541 731.2 541C716 541 701 541 685.8 541C670.7 541 655.3 541 640 541C624.7 541 609.3 541 594.2 541C579 541 564 541 548.8 541C533.7 541 518.3 541 503 541C487.7 541 472.3 541 457 541C441.7 541 426.3 541 411.2 541C396 541 381 541 365.8 541C350.7 541 335.3 541 320 541C304.7 541 289.3 541 274.2 541C259 541 244 541 228.8 541C213.7 541 198.3 541 183 541C167.7 541 152.3 541 137 541C121.7 541 106.3 541 91.2 541C76 541 61 541 45.8 541C30.7 541 15.3 541 7.7 541L0 541Z" fill="#969ff4"></path><path d="M0 517L7.7 516.5C15.3 516 30.7 515 45.8 513.2C61 511.3 76 508.7 91.2 509.3C106.3 510 121.7 514 137 514.5C152.3 515 167.7 512 183 511.7C198.3 511.3 213.7 513.7 228.8 513.5C244 513.3 259 510.7 274.2 509.3C289.3 508 304.7 508 320 509.2C335.3 510.3 350.7 512.7 365.8 514.2C381 515.7 396 516.3 411.2 515.7C426.3 515 441.7 513 457 511.5C472.3 510 487.7 509 503 509.3C518.3 509.7 533.7 511.3 548.8 513C564 514.7 579 516.3 594.2 516.2C609.3 516 624.7 514 640 512.8C655.3 511.7 670.7 511.3 685.8 511.3C701 511.3 716 511.7 731.2 512.5C746.3 513.3 761.7 514.7 777 514.5C792.3 514.3 807.7 512.7 823 513.2C838.3 513.7 853.7 516.3 868.8 516.8C884 517.3 899 515.7 914.2 513.5C929.3 511.3 944.7 508.7 952.3 507.3L960 506L960 541L952.3 541C944.7 541 929.3 541 914.2 541C899 541 884 541 868.8 541C853.7 541 838.3 541 823 541C807.7 541 792.3 541 777 541C761.7 541 746.3 541 731.2 541C716 541 701 541 685.8 541C670.7 541 655.3 541 640 541C624.7 541 609.3 541 594.2 541C579 541 564 541 548.8 541C533.7 541 518.3 541 503 541C487.7 541 472.3 541 457 541C441.7 541 426.3 541 411.2 541C396 541 381 541 365.8 541C350.7 541 335.3 541 320 541C304.7 541 289.3 541 274.2 541C259 541 244 541 228.8 541C213.7 541 198.3 541 183 541C167.7 541 152.3 541 137 541C121.7 541 106.3 541 91.2 541C76 541 61 541 45.8 541C30.7 541 15.3 541 7.7 541L0 541Z" fill="#7c92f3"></path><path d="M0 527L7.7 526.3C15.3 525.7 30.7 524.3 45.8 523.2C61 522 76 521 91.2 521.2C106.3 521.3 121.7 522.7 137 524C152.3 525.3 167.7 526.7 183 526.2C198.3 525.7 213.7 523.3 228.8 523.5C244 523.7 259 526.3 274.2 527.5C289.3 528.7 304.7 528.3 320 528.3C335.3 528.3 350.7 528.7 365.8 527.8C381 527 396 525 411.2 524.7C426.3 524.3 441.7 525.7 457 525.2C472.3 524.7 487.7 522.3 503 522.5C518.3 522.7 533.7 525.3 548.8 526.3C564 527.3 579 526.7 594.2 526.2C609.3 525.7 624.7 525.3 640 525.7C655.3 526 670.7 527 685.8 525.8C701 524.7 716 521.3 731.2 520.7C746.3 520 761.7 522 777 522.8C792.3 523.7 807.7 523.3 823 522.8C838.3 522.3 853.7 521.7 868.8 522C884 522.3 899 523.7 914.2 523.7C929.3 523.7 944.7 522.3 952.3 521.7L960 521L960 541L952.3 541C944.7 541 929.3 541 914.2 541C899 541 884 541 868.8 541C853.7 541 838.3 541 823 541C807.7 541 792.3 541 777 541C761.7 541 746.3 541 731.2 541C716 541 701 541 685.8 541C670.7 541 655.3 541 640 541C624.7 541 609.3 541 594.2 541C579 541 564 541 548.8 541C533.7 541 518.3 541 503 541C487.7 541 472.3 541 457 541C441.7 541 426.3 541 411.2 541C396 541 381 541 365.8 541C350.7 541 335.3 541 320 541C304.7 541 289.3 541 274.2 541C259 541 244 541 228.8 541C213.7 541 198.3 541 183 541C167.7 541 152.3 541 137 541C121.7 541 106.3 541 91.2 541C76 541 61 541 45.8 541C30.7 541 15.3 541 7.7 541L0 541Z" fill="#5c85f2"></path></svg>